<svg xmlns="http://www.w3.org/2000/svg" version="1.1" xmlns:xlink="http://www.w3.org/1999/xlink" xmlns:svgjs="http://svgjs.dev/svgjs" width="1000" height="623" viewBox="0 0 1000 623"><g transform="matrix(1,0,0,1,-0.6060606060606233,0.2522267206477409)"><svg viewBox="0 0 396 247" data-background-color="#dedede" preserveAspectRatio="xMidYMid meet" height="623" width="1000" xmlns="http://www.w3.org/2000/svg" xmlns:xlink="http://www.w3.org/1999/xlink"><g id="tight-bounds" transform="matrix(1,0,0,1,0.2400000000000091,-0.09999999999999432)"><svg viewBox="0 0 395.52 247.2" height="247.2" width="395.52"><g><svg></svg></g><g><svg viewBox="0 0 395.52 247.2" height="247.2" width="395.52"><mask id="8b7fc771-1ff5-4e6c-a79d-cd69ecb98716"><rect width="640" height="400" fill="white"></rect><g transform="matrix(1,0,0,1,39.55199999999999,85.85241740954378)"><svg viewBox="0 0 316.416 75.49516518091244" height="75.49516518091244" width="316.416"><g><svg viewBox="0 0 316.416 75.49516518091244" height="75.49516518091244" width="316.416"><g><svg viewBox="0 0 316.416 75.49516518091244" height="75.49516518091244" width="316.416"><g><svg viewBox="0 0 316.416 75.49516518091244" height="75.49516518091244" width="316.416"><g id="SvgjsG1266"><svg viewBox="0 0 316.416 75.49516518091244" height="75.49516518091244" width="316.416" id="SvgjsSvg1265"><g><svg viewBox="0 0 316.416 75.49516518091244" height="75.49516518091244" width="316.416"><g transform="matrix(1,0,0,1,0,0)"><svg width="316.416" viewBox="-1.85 -41.75 191.69 46.5" height="75.49516518091244" data-palette-color="#374151"><path d="M14.5-27.2Q17.1-27.2 19.18-26.45 21.25-25.7 23.1-24.1L23.1-24.1 20.25-20.25Q18.9-21.25 17.65-21.7 16.4-22.15 14.9-22.15L14.9-22.15Q8.95-22.15 8.95-13.1L8.95-13.1Q8.95-8.5 10.5-6.48 12.05-4.45 14.9-4.45L14.9-4.45Q16.3-4.45 17.48-4.9 18.65-5.35 20.25-6.35L20.25-6.35 23.1-2.3Q19.35 0.75 14.55 0.75L14.55 0.75Q10.75 0.75 7.95-0.93 5.15-2.6 3.65-5.7 2.15-8.8 2.15-13L2.15-13Q2.15-17.2 3.65-20.43 5.15-23.65 7.95-25.43 10.75-27.2 14.5-27.2L14.5-27.2ZM38.55-27.2Q44.4-27.2 47.67-23.48 50.95-19.75 50.95-13.25L50.95-13.25Q50.95-9.1 49.45-5.93 47.95-2.75 45.15-1 42.35 0.75 38.5 0.75L38.5 0.75Q32.65 0.75 29.35-2.98 26.05-6.7 26.05-13.25L26.05-13.25Q26.05-17.4 27.55-20.55 29.05-23.7 31.87-25.45 34.7-27.2 38.55-27.2L38.55-27.2ZM38.55-22.35Q32.8-22.35 32.8-13.25L32.8-13.25Q32.8-8.55 34.22-6.33 35.65-4.1 38.5-4.1L38.5-4.1Q41.35-4.1 42.77-6.35 44.2-8.6 44.2-13.25L44.2-13.25Q44.2-17.9 42.77-20.13 41.35-22.35 38.55-22.35L38.55-22.35ZM72.8-37.75L79.2-37.05 79.2 0 73.55 0 73.09-3.35Q71.84-1.45 69.92-0.35 68 0.75 65.55 0.75L65.55 0.75Q60.7 0.75 58.1-3 55.5-6.75 55.5-13.2L55.5-13.2Q55.5-17.25 56.8-20.43 58.1-23.6 60.52-25.4 62.95-27.2 66.15-27.2L66.15-27.2Q69.95-27.2 72.8-24.35L72.8-24.35 72.8-37.75ZM67.34-4.1Q69.05-4.1 70.34-4.93 71.65-5.75 72.8-7.5L72.8-7.5 72.8-19.6Q71.65-21 70.47-21.7 69.3-22.4 67.75-22.4L67.75-22.4Q65.2-22.4 63.72-20.13 62.25-17.85 62.25-13.25L62.25-13.25Q62.25-8.35 63.55-6.23 64.84-4.1 67.34-4.1L67.34-4.1ZM108.59-13.85Q108.59-13.35 108.44-11.25L108.44-11.25 91.84-11.25Q92.14-7.4 93.84-5.75 95.54-4.1 98.34-4.1L98.34-4.1Q100.09-4.1 101.64-4.67 103.19-5.25 104.94-6.45L104.94-6.45 107.59-2.8Q103.19 0.75 97.79 0.75L97.79 0.75Q91.74 0.75 88.47-2.95 85.19-6.65 85.19-13.05L85.19-13.05Q85.19-17.1 86.59-20.33 87.99-23.55 90.64-25.38 93.29-27.2 96.94-27.2L96.94-27.2Q102.49-27.2 105.54-23.68 108.59-20.15 108.59-13.85L108.59-13.85ZM102.24-15.4L102.24-15.7Q102.24-22.65 97.09-22.65L97.09-22.65Q94.74-22.65 93.42-20.93 92.09-19.2 91.84-15.4L91.84-15.4 102.24-15.4ZM112.49-26.45L131.54-26.45 131.54-21.85 118.74-5 131.79-5 131.14 0 111.39 0 111.39-4.6 124.24-21.45 112.49-21.45 112.49-26.45ZM158.49-13.85Q158.49-13.35 158.34-11.25L158.34-11.25 141.74-11.25Q142.04-7.4 143.74-5.75 145.44-4.1 148.24-4.1L148.24-4.1Q149.99-4.1 151.54-4.67 153.09-5.25 154.84-6.45L154.84-6.45 157.49-2.8Q153.09 0.75 147.69 0.75L147.69 0.75Q141.64 0.75 138.36-2.95 135.09-6.65 135.09-13.05L135.09-13.05Q135.09-17.1 136.49-20.33 137.89-23.55 140.54-25.38 143.19-27.2 146.84-27.2L146.84-27.2Q152.39-27.2 155.44-23.68 158.49-20.15 158.49-13.85L158.49-13.85ZM152.14-15.4L152.14-15.7Q152.14-22.65 146.99-22.65L146.99-22.65Q144.64-22.65 143.31-20.93 141.99-19.2 141.74-15.4L141.74-15.4 152.14-15.4ZM178.34-27.2Q181.89-27.2 183.86-25.08 185.84-22.95 185.84-19.15L185.84-19.15 185.84 0 179.44 0 179.44-18.15Q179.44-20.5 178.61-21.45 177.79-22.4 176.19-22.4L176.19-22.4Q174.54-22.4 173.21-21.38 171.89-20.35 170.64-18.4L170.64-18.4 170.64 0 164.24 0 164.24-26.45 169.79-26.45 170.29-23Q173.54-27.2 178.34-27.2L178.34-27.2Z" opacity="1" transform="matrix(1,0,0,1,0,0)" fill="black" class="wordmark-text-0" id="SvgjsPath1264" stroke-width="7" stroke="black" stroke-linejoin="round"></path></svg></g></svg></g></svg></g></svg></g></svg></g></svg></g></svg></g></mask><g transform="matrix(1,0,0,1,39.55199999999999,85.85241740954378)"><svg viewBox="0 0 316.416 75.49516518091244" height="75.49516518091244" width="316.416"><g><svg viewBox="0 0 316.416 75.49516518091244" height="75.49516518091244" width="316.416"><g><svg viewBox="0 0 316.416 75.49516518091244" height="75.49516518091244" width="316.416"><g><svg viewBox="0 0 316.416 75.49516518091244" height="75.49516518091244" width="316.416"><g id="textblocktransform"><svg viewBox="0 0 316.416 75.49516518091244" height="75.49516518091244" width="316.416" id="textblock"><g><svg viewBox="0 0 316.416 75.49516518091244" height="75.49516518091244" width="316.416"><g transform="matrix(1,0,0,1,0,0)"><svg width="316.416" viewBox="-1.85 -41.75 191.69 46.5" height="75.49516518091244" data-palette-color="#374151"><path d="M14.5-27.2Q17.1-27.2 19.18-26.45 21.25-25.7 23.1-24.1L23.1-24.1 20.25-20.25Q18.9-21.25 17.65-21.7 16.4-22.15 14.9-22.15L14.9-22.15Q8.95-22.15 8.95-13.1L8.95-13.1Q8.95-8.5 10.5-6.48 12.05-4.45 14.9-4.45L14.9-4.45Q16.3-4.45 17.48-4.9 18.65-5.35 20.25-6.35L20.25-6.35 23.1-2.3Q19.35 0.75 14.55 0.75L14.55 0.75Q10.75 0.75 7.95-0.93 5.15-2.6 3.65-5.7 2.15-8.8 2.15-13L2.15-13Q2.15-17.2 3.65-20.43 5.15-23.65 7.95-25.43 10.75-27.2 14.5-27.2L14.5-27.2ZM38.55-27.2Q44.4-27.2 47.67-23.48 50.95-19.75 50.95-13.25L50.95-13.25Q50.95-9.1 49.45-5.93 47.95-2.75 45.15-1 42.35 0.75 38.5 0.75L38.5 0.75Q32.65 0.75 29.35-2.98 26.05-6.7 26.05-13.25L26.05-13.25Q26.05-17.4 27.55-20.55 29.05-23.7 31.87-25.45 34.7-27.2 38.55-27.2L38.55-27.2ZM38.55-22.35Q32.8-22.35 32.8-13.25L32.8-13.25Q32.8-8.55 34.22-6.33 35.65-4.1 38.5-4.1L38.5-4.1Q41.35-4.1 42.77-6.35 44.2-8.6 44.2-13.25L44.2-13.25Q44.2-17.9 42.77-20.13 41.35-22.35 38.55-22.35L38.55-22.35ZM72.8-37.75L79.2-37.05 79.2 0 73.55 0 73.09-3.35Q71.84-1.45 69.92-0.35 68 0.75 65.55 0.75L65.55 0.75Q60.7 0.75 58.1-3 55.5-6.75 55.5-13.2L55.5-13.2Q55.5-17.25 56.8-20.43 58.1-23.6 60.52-25.4 62.95-27.2 66.15-27.2L66.15-27.2Q69.95-27.2 72.8-24.35L72.8-24.35 72.8-37.75ZM67.34-4.1Q69.05-4.1 70.34-4.93 71.65-5.75 72.8-7.5L72.8-7.5 72.8-19.6Q71.65-21 70.47-21.7 69.3-22.4 67.75-22.4L67.75-22.4Q65.2-22.4 63.72-20.13 62.25-17.85 62.25-13.25L62.25-13.25Q62.25-8.35 63.55-6.23 64.84-4.1 67.34-4.1L67.34-4.1ZM108.59-13.85Q108.59-13.35 108.44-11.25L108.44-11.25 91.84-11.25Q92.14-7.4 93.84-5.75 95.54-4.1 98.34-4.1L98.34-4.1Q100.09-4.1 101.64-4.67 103.19-5.25 104.94-6.45L104.94-6.45 107.59-2.8Q103.19 0.75 97.79 0.75L97.79 0.75Q91.74 0.75 88.47-2.95 85.19-6.65 85.19-13.05L85.19-13.05Q85.19-17.1 86.59-20.33 87.99-23.55 90.64-25.38 93.29-27.2 96.94-27.2L96.94-27.2Q102.49-27.2 105.54-23.68 108.59-20.15 108.59-13.85L108.59-13.85ZM102.24-15.4L102.24-15.7Q102.24-22.65 97.09-22.65L97.09-22.65Q94.74-22.65 93.42-20.93 92.09-19.2 91.84-15.4L91.84-15.4 102.24-15.4ZM112.49-26.45L131.54-26.45 131.54-21.85 118.74-5 131.79-5 131.14 0 111.39 0 111.39-4.6 124.24-21.45 112.49-21.45 112.49-26.45ZM158.49-13.85Q158.49-13.35 158.34-11.25L158.34-11.25 141.74-11.25Q142.04-7.4 143.74-5.75 145.44-4.1 148.24-4.1L148.24-4.1Q149.99-4.1 151.54-4.67 153.09-5.25 154.84-6.45L154.84-6.45 157.49-2.8Q153.09 0.75 147.69 0.75L147.69 0.75Q141.64 0.75 138.36-2.95 135.09-6.65 135.09-13.05L135.09-13.05Q135.09-17.1 136.49-20.33 137.89-23.55 140.54-25.38 143.19-27.2 146.84-27.2L146.84-27.2Q152.39-27.2 155.44-23.68 158.49-20.15 158.49-13.85L158.49-13.85ZM152.14-15.4L152.14-15.7Q152.14-22.65 146.99-22.65L146.99-22.65Q144.64-22.65 143.31-20.93 141.99-19.2 141.74-15.4L141.74-15.4 152.14-15.4ZM178.34-27.2Q181.89-27.2 183.86-25.08 185.84-22.95 185.84-19.15L185.84-19.15 185.84 0 179.44 0 179.44-18.15Q179.44-20.5 178.61-21.45 177.79-22.4 176.19-22.4L176.19-22.4Q174.54-22.4 173.21-21.38 171.89-20.35 170.64-18.4L170.64-18.4 170.64 0 164.24 0 164.24-26.45 169.79-26.45 170.29-23Q173.54-27.2 178.34-27.2L178.34-27.2Z" opacity="1" transform="matrix(1,0,0,1,0,0)" fill="#374151" class="wordmark-text-0" data-fill-palette-color="primary" id="text-0"></path></svg></g></svg></g></svg></g></svg></g></svg></g></svg></g></svg></g><g mask="url(#8b7fc771-1ff5-4e6c-a79d-cd69ecb98716)"><g transform="matrix(2.7311205168188906, 0, 0, 2.7311205168188906, 75.17365560258408, 1)"><svg xmlns="http://www.w3.org/2000/svg" xmlns:xlink="http://www.w3.org/1999/xlink" version="1.1" x="0" y="0" viewBox="5.113999999999997 5.11 89.77000000000001 89.78" enable-background="new 0 0 100 100" xml:space="preserve" height="89.78" width="89.77000000000001" class="icon-none" data-fill-palette-color="accent" id="none"><g fill="#374151" data-fill-palette-color="accent"><path d="M50.004 5.11c-24.75 0-44.89 20.14-44.89 44.89s20.14 44.89 44.89 44.89S94.884 74.75 94.884 50 74.754 5.11 50.004 5.11zM73.354 81.02c-6.84 5.06-14.899 7.71-23.35 7.71-19.37 0-36.03-14.44-38.76-33.59l-0.01-0.11c-0.221-1.7-0.341-3.32-0.36-4.86-0.01-0.17-0.01-0.38-0.01-0.57 0-21.58 17.56-39.14 39.14-39.14 5.58 0 10.93 1.14 15.91 3.39l0.24 0.1c13.97 6.34 22.979 20.33 22.979 35.65C89.134 62.1 83.384 73.55 73.354 81.02z" fill="#374151" data-fill-palette-color="accent"></path><path d="M78.504 69.49c-0.21 0.45-0.43 0.9-0.65 1.34-0.409 0.8-0.85 1.59-1.319 2.36-1.311 2.17-2.851 4.21-4.59 6.07-6.4 4.73-13.98 7.22-21.94 7.22-15.85 0-29.79-10.27-34.87-24.8 0.101 0.17 0.2 0.35 0.311 0.52 0.21 0.38 0.439 0.75 0.67 1.12 0.42 0.69 0.85 1.36 1.3 2.02 4.729 6.94 12.18 10.76 20.97 10.76 6.67 0 13.391-2.28 17.13-5.83 3.931-3.72 5.08-8.96 3.07-14.01-0.17-0.42-0.36-0.84-0.57-1.23-0.529-1.04-1.18-1.98-1.899-2.79-0.16-0.19-0.34-0.37-0.511-0.54-0.18-0.18-0.35-0.35-0.529-0.49-0.36-0.32-0.721-0.6-1.101-0.84-0.18-0.12-0.37-0.24-0.569-0.34-0.38-0.21-0.761-0.38-1.15-0.51-0.01 0-0.01 0-0.01 0-0.38-0.13-0.771-0.22-1.15-0.27-0.24-0.02-0.479-0.03-0.71-0.03h-0.01c-0.01-0.01-0.021-0.03-0.021-0.04-0.09-0.15-0.17-0.3-0.229-0.47-0.021-0.03-0.03-0.05-0.04-0.08-0.07-0.17-0.13-0.36-0.17-0.55-0.061-0.21-0.09-0.43-0.12-0.65-0.03-0.23-0.04-0.47-0.04-0.71 0-0.48 0.05-0.98 0.15-1.5 0.13-0.69 0.359-1.42 0.66-2.15 0.079-0.18 0.159-0.37 0.25-0.55 1.55-3.22 5.01-6.67 10.039-6.67 1.07 0 2.19 0.16 3.311 0.48 4.439 1.25 10.81 6.06 14.3 13.67C80.524 54.5 82.214 61.53 78.504 69.49z" fill="#374151" data-fill-palette-color="accent"></path><path d="M34.554 24.49c-4.39 6.18-6.41 14.59-4.93 20.44 1.8 7.11 7.67 9.64 12.57 9.64 0.76 0 1.5-0.06 2.21-0.18 0.239-0.03 0.47-0.08 0.699-0.13 0.221-0.05 0.45-0.11 0.66-0.17 0.221-0.06 0.44-0.13 0.641-0.2 0.42-0.15 0.819-0.32 1.189-0.51 0.19-0.09 0.37-0.19 0.54-0.3 0.17-0.1 0.34-0.21 0.5-0.32 0.16-0.11 0.32-0.23 0.46-0.35 0.15-0.12 0.29-0.25 0.42-0.38 0.13-0.13 0.261-0.27 0.37-0.4 0.12-0.14 0.23-0.28 0.33-0.43 0.101-0.15 0.19-0.3 0.271-0.45 0.01-0.01 0.01-0.02 0.02-0.03 0 0 0.01 0 0.021 0 0.6 0 1.22 0.16 1.85 0.45 0.63 0.31 1.27 0.74 1.87 1.29 0.149 0.13 0.3 0.28 0.439 0.43 0.301 0.3 0.57 0.62 0.83 0.96 0.13 0.18 0.261 0.36 0.391 0.55 0.26 0.36 0.489 0.75 0.699 1.15 0.221 0.41 0.41 0.83 0.591 1.26 0.85 2.14 2.29 7.64-2.721 12.38-3.42 3.24-9.88 5.41-16.09 5.41-4.8 0-13.74-1.31-19.729-10.1-0.261-0.38-0.521-0.77-0.761-1.16-0.25-0.39-0.489-0.78-0.729-1.18-0.25-0.4-0.48-0.79-0.71-1.2-0.43-0.76-1.32-2.5-1.37-2.59-0.18-0.38-0.37-0.76-0.54-1.14-0.2-0.43-0.4-0.86-0.58-1.29-0.11-0.25-0.45-1.08-0.51-1.23-0.23-1.84-0.34-3.51-0.34-5.11 0-20.34 16.55-36.89 36.89-36.89 3.12 0 6.17 0.38 9.11 1.13h-0.141c-1.649-0.03-3.409 0.01-5.229 0.14h-0.01c-0.4 0.02-0.801 0.05-1.221 0.09C43.194 14.9 37.604 20.19 34.554 24.49z" fill="#374151" data-fill-palette-color="accent"></path><path d="M79.864 70.12c3.95-8.47 2.16-15.96-0.04-20.75-3.16-6.89-9.431-12.84-15.25-14.48-1.26-0.36-2.51-0.54-3.721-0.54-5.729 0-9.64 3.88-11.39 7.52-0.8 1.66-1.2 3.34-1.2 4.86 0 0.18 0.011 0.36 0.021 0.53 0.01 0.17 0.03 0.34 0.05 0.5 0.02 0.14 0.04 0.28 0.07 0.42 0.02 0.11 0.04 0.22 0.069 0.32 0.15 0.58 0.37 1.11 0.66 1.57v0.01c-0.06 0.11-0.13 0.22-0.2 0.33-0.08 0.11-0.159 0.21-0.239 0.31-0.011 0.01-0.021 0.03-0.04 0.04-0.09 0.11-0.19 0.21-0.311 0.31-0.109 0.11-0.229 0.21-0.35 0.3-0.12 0.09-0.25 0.18-0.38 0.27-0.12 0.09-0.24 0.16-0.37 0.23-0.16 0.1-0.33 0.18-0.51 0.26-0.15 0.08-0.311 0.15-0.48 0.21-0.15 0.06-0.31 0.12-0.47 0.17-0.19 0.07-0.391 0.13-0.59 0.18-0.181 0.05-0.37 0.1-0.561 0.13-0.189 0.04-0.39 0.08-0.59 0.11-0.12 0.02-0.229 0.03-0.34 0.05-0.11 0.01-0.22 0.02-0.33 0.03-0.07 0.01-0.15 0.02-0.22 0.02-0.311 0.03-0.63 0.04-0.96 0.04-4.33 0-9.53-2.24-11.11-8.5-1.14-4.47-0.15-12.39 4.69-19.21 2.869-4.04 8.13-9.02 16.88-9.79 0.399-0.04 0.79-0.07 1.18-0.09 3.9-0.26 7.83-0.06 11.51 0.57 13.09 5.99 21.54 19.15 21.54 33.55 0 8.98-3.16 17.4-8.85 24.01 0.14-0.24 0.28-0.49 0.42-0.73 0.03-0.04 0.05-0.08 0.07-0.12 0.229-0.41 0.449-0.83 0.659-1.25C79.424 71.05 79.644 70.59 79.864 70.12z" fill="#374151" data-fill-palette-color="accent"></path></g></svg></g></g></svg></g><defs></defs></svg><rect width="395.52" height="247.2" fill="none" stroke="none" visibility="hidden"></rect></g></svg></g></svg>