{
  "accessors": [
    {
      "bufferView": 2,
      "componentType": 5126,
      "count": 4,
      "max": [
        75.0,
        75.0,
        -14.298999786376953
      ],
      "min": [
        -75.0,
        -75.0,
        -14.298999786376953
      ],
      "type": "VEC3"
    },
    {
      "bufferView": 2,
      "byteOffset": 48,
      "componentType": 5126,
      "count": 4,
      "max": [
        0.0,
        0.0,
        1.0
      ],
      "min": [
        0.0,
        0.0,
        1.0
      ],
      "type": "VEC3"
    },
    {
      "bufferView": 1,
      "componentType": 5126,
      "count": 4,
      "max": [
        1.0,
        1.0
      ],
      "min": [
        0.0,
        0.0
      ],
      "type": "VEC2"
    },
    {
      "bufferView": 0,
      "componentType": 5125,
      "count": 6,
      "type": "SCALAR"
    },
    {
      "bufferView": 2,
      "byteOffset": 96,
      "componentType": 5126,
      "count": 64,
      "max": [
        904.5086059570313,
        951.0565185546875,
        1000.0
      ],
      "min": [
        -904.5084838867188,
        -951.0565185546875,
        -1000.0
      ],
      "type": "VEC3"
    },
    {
      "bufferView": 2,
      "byteOffset": 864,
      "componentType": 5126,
      "count": 64,
      "max": [
        0.9094696640968323,
        0.9562685489654541,
        1.0
      ],
      "min": [
        -0.9094696640968323,
        -0.9562685489654541,
        -1.0
      ],
      "type": "VEC3"
    },
    {
      "bufferView": 1,
      "byteOffset": 32,
      "componentType": 5126,
      "count": 64,
      "max": [
        1.0,
        1.0
      ],
      "min": [
        0.0,
        0.0
      ],
      "type": "VEC2"
    },
    {
      "bufferView": 0,
      "byteOffset": 24,
      "componentType": 5125,
      "count": 240,
      "type": "SCALAR"
    },
    {
      "bufferView": 2,
      "byteOffset": 1632,
      "componentType": 5126,
      "count": 1813,
      "max": [
        33.878501892089844,
        10.114899635314941,
        16.3439998626709
      ],
      "min": [
        -16.882200241088867,
        -30.37179946899414,
        -14.350700378417969
      ],
      "type": "VEC3"
    },
    {
      "bufferView": 2,
      "byteOffset": 23388,
      "componentType": 5126,
      "count": 1813,
      "max": [
        1.0,
        1.0,
        1.0
      ],
      "min": [
        -1.0,
        -1.0,
        -1.0
      ],
      "type": "VEC3"
    },
    {
      "bufferView": 1,
      "byteOffset": 544,
      "componentType": 5126,
      "count": 1813,
      "max": [
        0.9933000206947327,
        0.9983999729156494
      ],
      "min": [
        -0.015300000086426735,
        0.0015999999595806003
      ],
      "type": "VEC2"
    },
    {
      "bufferView": 0,
      "byteOffset": 984,
      "componentType": 5125,
      "count": 4068,
      "type": "SCALAR"
    },
    {
      "bufferView": 2,
      "byteOffset": 45144,
      "componentType": 5126,
      "count": 84,
      "max": [
        12.279999732971191,
        8.631099700927734,
        13.62399959564209
      ],
      "min": [
        -12.279999732971191,
        -11.88759994506836,
        -13.628199577331543
      ],
      "type": "VEC3"
    },
    {
      "bufferView": 2,
      "byteOffset": 46152,
      "componentType": 5126,
      "count": 84,
      "max": [
        1.0,
        1.0,
        0.9999842643737793
      ],
      "min": [
        -1.0,
        -1.0,
        -0.9999847412109375
      ],
      "type": "VEC3"
    },
    {
      "bufferView": 1,
      "byteOffset": 15048,
      "componentType": 5126,
      "count": 84,
      "max": [
        1.0,
        0.9983999729156494
      ],
      "min": [
        -0.008700000122189522,
        0.0
      ],
      "type": "VEC2"
    },
    {
      "bufferView": 0,
      "byteOffset": 17256,
      "componentType": 5125,
      "count": 210,
      "type": "SCALAR"
    },
    {
      "bufferView": 2,
      "byteOffset": 47160,
      "componentType": 5126,
      "count": 1681,
      "max": [
        29.918100357055664,
        9.770099639892578,
        12.994999885559082
      ],
      "min": [
        -15.383999824523926,
        -28.686599731445313,
        -13.279600143432617
      ],
      "type": "VEC3"
    },
    {
      "bufferView": 2,
      "byteOffset": 67332,
      "componentType": 5126,
      "count": 1681,
      "max": [
        1.0,
        1.0,
        1.0
      ],
      "min": [
        -1.0,
        -1.0,
        -1.0
      ],
      "type": "VEC3"
    },
    {
      "bufferView": 1,
      "byteOffset": 15720,
      "componentType": 5126,
      "count": 1681,
      "max": [
        1.0,
        1.1648999452590942
      ],
      "min": [
        0.0,
        -0.08330000191926956
      ],
      "type": "VEC2"
    },
    {
      "bufferView": 0,
      "byteOffset": 18096,
      "componentType": 5125,
      "count": 4206,
      "type": "SCALAR"
    },
    {
      "bufferView": 2,
      "byteOffset": 87504,
      "componentType": 5126,
      "count": 7059,
      "max": [
        29.918100357055664,
        14.014399528503418,
        12.994999885559082
      ],
      "min": [
        -22.80229949951172,
        -28.686599731445313,
        -14.545900344848633
      ],
      "type": "VEC3"
    },
    {
      "bufferView": 2,
      "byteOffset": 172212,
      "componentType": 5126,
      "count": 7059,
      "max": [
        1.0,
        0.7071068286895752,
        0.5774169564247131
      ],
      "min": [
        -0.7071068286895752,
        -0.7071068286895752,
        -0.5773835778236389
      ],
      "type": "VEC3"
    },
    {
      "bufferView": 1,
      "byteOffset": 29168,
      "componentType": 5126,
      "count": 7059,
      "max": [
        1.0,
        0.9990000128746033
      ],
      "min": [
        -0.012500000186264515,
        0.0
      ],
      "type": "VEC2"
    },
    {
      "bufferView": 0,
      "byteOffset": 34920,
      "componentType": 5125,
      "count": 37020,
      "type": "SCALAR"
    },
    {
      "bufferView": 2,
      "byteOffset": 256920,
      "componentType": 5126,
      "count": 2288,
      "max": [
        30.062400817871094,
        11.183699607849121,
        4.069200038909912
      ],
      "min": [
        -16.015100479125977,
        -28.707399368286133,
        -13.847900390625
      ],
      "type": "VEC3"
    },
    {
      "bufferView": 2,
      "byteOffset": 284376,
      "componentType": 5126,
      "count": 2288,
      "max": [
        1.0,
        0.9937980771064758,
        0.24611058831214905
      ],
      "min": [
        -0.9950543642044067,
        -1.0,
        0.0
      ],
      "type": "VEC3"
    },
    {
      "bufferView": 1,
      "byteOffset": 85640,
      "componentType": 5126,
      "count": 2288,
      "max": [
        1.0277999639511108,
        1.0
      ],
      "min": [
        0.007600000128149986,
        0.0
      ],
      "type": "VEC2"
    },
    {
      "bufferView": 0,
      "byteOffset": 183000,
      "componentType": 5125,
      "count": 5232,
      "type": "SCALAR"
    },
    {
      "bufferView": 2,
      "byteOffset": 311832,
      "componentType": 5126,
      "count": 2175,
      "max": [
        30.062400817871094,
        15.884599685668945,
        4.069200038909912
      ],
      "min": [
        -16.015100479125977,
        -28.707399368286133,
        -14.474300384521484
      ],
      "type": "VEC3"
    },
    {
      "bufferView": 2,
      "byteOffset": 337932,
      "componentType": 5126,
      "count": 2175,
      "max": [
        1.0,
        -0.0,
        0.9852352142333984
      ],
      "min": [
        -0.9950543642044067,
        -0.9847815632820129,
        -0.9852352142333984
      ],
      "type": "VEC3"
    },
    {
      "bufferView": 1,
      "byteOffset": 103944,
      "componentType": 5126,
      "count": 2175,
      "max": [
        1.0277999639511108,
        1.0
      ],
      "min": [
        0.0,
        0.0
      ],
      "type": "VEC2"
    },
    {
      "bufferView": 0,
      "byteOffset": 203928,
      "componentType": 5125,
      "count": 10386,
      "type": "SCALAR"
    },
    {
      "bufferView": 2,
      "byteOffset": 364032,
      "componentType": 5126,
      "count": 1274,
      "max": [
        33.878501892089844,
        22.308799743652344,
        3.141700029373169
      ],
      "min": [
        -16.882200241088867,
        -30.37179946899414,
        -14.366999626159668
      ],
      "type": "VEC3"
    },
    {
      "bufferView": 2,
      "byteOffset": 379320,
      "componentType": 5126,
      "count": 1274,
      "max": [
        1.0,
        1.0,
        1.0
      ],
      "min": [
        -1.0,
        -1.0,
        -1.0
      ],
      "type": "VEC3"
    },
    {
      "bufferView": 1,
      "byteOffset": 121344,
      "componentType": 5126,
      "count": 1274,
      "max": [
        1.0,
        1.0
      ],
      "min": [
        0.007600000128149986,
        0.0
      ],
      "type": "VEC2"
    },
    {
      "bufferView": 0,
      "byteOffset": 245472,
      "componentType": 5125,
      "count": 6336,
      "type": "SCALAR"
    },
    {
      "bufferView": 2,
      "byteOffset": 394608,
      "componentType": 5126,
      "count": 373,
      "max": [
        12.484199523925781,
        11.57390022277832,
        9.467300415039063
      ],
      "min": [
        -12.57699966430664,
        -11.88759994506836,
        -14.340700149536133
      ],
      "type": "VEC3"
    },
    {
      "bufferView": 2,
      "byteOffset": 399084,
      "componentType": 5126,
      "count": 373,
      "max": [
        1.0,
        1.0,
        1.0
      ],
      "min": [
        -1.0,
        -1.0,
        -1.0
      ],
      "type": "VEC3"
    },
    {
      "bufferView": 1,
      "byteOffset": 131536,
      "componentType": 5126,
      "count": 373,
      "max": [
        0.9933000206947327,
        0.9983999729156494
      ],
      "min": [
        -0.015300000086426735,
        0.0015999999595806003
      ],
      "type": "VEC2"
    },
    {
      "bufferView": 0,
      "byteOffset": 270816,
      "componentType": 5125,
      "count": 852,
      "type": "SCALAR"
    }
  ],
  "asset": {
    "extras": {
      "author": "tzeshi (https://sketchfab.com/timvizesi)",
      "license": "CC-BY-4.0 (http://creativecommons.org/licenses/by/4.0/)",
      "source": "https://sketchfab.com/3d-models/apple-macintosh-608e0f6ce5e9487eb859f48248e1fac4",
      "title": "Apple Macintosh"
    },
    "generator": "Sketchfab-12.66.0",
    "version": "2.0"
  },
  "bufferViews": [
    {
      "buffer": 0,
      "byteLength": 274224,
      "name": "floatBufferViews",
      "target": 34963
    },
    {
      "buffer": 0,
      "byteLength": 134520,
      "byteOffset": 274224,
      "byteStride": 8,
      "name": "floatBufferViews",
      "target": 34962
    },
    {
      "buffer": 0,
      "byteLength": 403560,
      "byteOffset": 408744,
      "byteStride": 12,
      "name": "floatBufferViews",
      "target": 34962
    }
  ],
  "buffers": [
    {
      "byteLength": 812304,
      "uri": "scene.bin"
    }
  ],
  "extensionsUsed": [
    "KHR_materials_unlit"
  ],
  "images": [
    {
      "uri": "textures/02___Default_baseColor.png"
    },
    {
      "uri": "textures/02___Default_emissive.png"
    }
  ],
  "materials": [
    {
      "alphaMode": "BLEND",
      "doubleSided": true,
      "emissiveTexture": {
        "index": 1
      },
      "extensions": {
        "KHR_materials_unlit": {}
      },
      "name": "02___Default",
      "pbrMetallicRoughness": {
        "baseColorTexture": {
          "index": 0
        },
        "metallicFactor": 0.0
      }
    },
    {
      "doubleSided": true,
      "extensions": {
        "KHR_materials_unlit": {}
      },
      "name": "Background",
      "pbrMetallicRoughness": {
        "baseColorFactor": [
          0.3647,
          0.3255,
          0.2118,
          1.0
        ],
        "metallicFactor": 0.0
      }
    },
    {
      "doubleSided": true,
      "extensions": {
        "KHR_materials_unlit": {}
      },
      "name": "dark_beige",
      "pbrMetallicRoughness": {
        "baseColorFactor": [
          0.5922,
          0.5333,
          0.3725,
          1.0
        ],
        "metallicFactor": 0.0
      }
    },
    {
      "doubleSided": true,
      "extensions": {
        "KHR_materials_unlit": {}
      },
      "name": "dark_grey",
      "pbrMetallicRoughness": {
        "baseColorFactor": [
          0.0431,
          0.0431,
          0.0471,
          1.0
        ],
        "metallicFactor": 0.0
      }
    },
    {
      "doubleSided": true,
      "extensions": {
        "KHR_materials_unlit": {}
      },
      "name": "darker_beige",
      "pbrMetallicRoughness": {
        "baseColorFactor": [
          0.4431,
          0.3608,
          0.2275,
          1.0
        ],
        "metallicFactor": 0.0
      }
    },
    {
      "doubleSided": true,
      "extensions": {
        "KHR_materials_unlit": {}
      },
      "name": "darkest_beige",
      "pbrMetallicRoughness": {
        "baseColorFactor": [
          0.3647,
          0.298,
          0.1882,
          1.0
        ],
        "metallicFactor": 0.0
      }
    },
    {
      "doubleSided": true,
      "extensions": {
        "KHR_materials_unlit": {}
      },
      "name": "light_beige",
      "pbrMetallicRoughness": {
        "baseColorFactor": [
          0.7176,
          0.6706,
          0.5647,
          1.0
        ],
        "metallicFactor": 0.0
      }
    },
    {
      "doubleSided": true,
      "extensions": {
        "KHR_materials_unlit": {}
      },
      "name": "lighter_beige",
      "pbrMetallicRoughness": {
        "baseColorFactor": [
          0.6745,
          0.6275,
          0.4941,
          1.0
        ],
        "metallicFactor": 0.0
      }
    }
  ],
  "meshes": [
    {
      "name": "Object_0",
      "primitives": [
        {
          "attributes": {
            "NORMAL": 1,
            "POSITION": 0,
            "TEXCOORD_0": 2
          },
          "indices": 3,
          "material": 0,
          "mode": 4
        }
      ]
    },
    {
      "name": "Object_1",
      "primitives": [
        {
          "attributes": {
            "NORMAL": 5,
            "POSITION": 4,
            "TEXCOORD_0": 6
          },
          "indices": 7,
          "material": 1,
          "mode": 4
        }
      ]
    },
    {
      "name": "Object_2",
      "primitives": [
        {
          "attributes": {
            "NORMAL": 9,
            "POSITION": 8,
            "TEXCOORD_0": 10
          },
          "indices": 11,
          "material": 2,
          "mode": 4
        }
      ]
    },
    {
      "name": "Object_3",
      "primitives": [
        {
          "attributes": {
            "NORMAL": 13,
            "POSITION": 12,
            "TEXCOORD_0": 14
          },
          "indices": 15,
          "material": 3,
          "mode": 4
        }
      ]
    },
    {
      "name": "Object_4",
      "primitives": [
        {
          "attributes": {
            "NORMAL": 17,
            "POSITION": 16,
            "TEXCOORD_0": 18
          },
          "indices": 19,
          "material": 4,
          "mode": 4
        }
      ]
    },
    {
      "name": "Object_5",
      "primitives": [
        {
          "attributes": {
            "NORMAL": 21,
            "POSITION": 20,
            "TEXCOORD_0": 22
          },
          "indices": 23,
          "material": 4,
          "mode": 4
        }
      ]
    },
    {
      "name": "Object_6",
      "primitives": [
        {
          "attributes": {
            "NORMAL": 25,
            "POSITION": 24,
            "TEXCOORD_0": 26
          },
          "indices": 27,
          "material": 5,
          "mode": 4
        }
      ]
    },
    {
      "name": "Object_7",
      "primitives": [
        {
          "attributes": {
            "NORMAL": 29,
            "POSITION": 28,
            "TEXCOORD_0": 30
          },
          "indices": 31,
          "material": 5,
          "mode": 4
        }
      ]
    },
    {
      "name": "Object_8",
      "primitives": [
        {
          "attributes": {
            "NORMAL": 33,
            "POSITION": 32,
            "TEXCOORD_0": 34
          },
          "indices": 35,
          "material": 6,
          "mode": 4
        }
      ]
    },
    {
      "name": "Object_9",
      "primitives": [
        {
          "attributes": {
            "NORMAL": 37,
            "POSITION": 36,
            "TEXCOORD_0": 38
          },
          "indices": 39,
          "material": 7,
          "mode": 4
        }
      ]
    }
  ],
  "nodes": [
    {
      "children": [
        1
      ],
      "matrix": [
        1.0,
        0.0,
        0.0,
        0.0,
        0.0,
        2.220446049250313e-16,
        -1.0,
        0.0,
        0.0,
        1.0,
        2.220446049250313e-16,
        0.0,
        0.0,
        0.0,
        0.0,
        1.0
      ],
      "name": "Sketchfab_model"
    },
    {
      "children": [
        2,
        3,
        4,
        5,
        6,
        7,
        8,
        9,
        10,
        11
      ],
      "name": "Apple Macintosh.obj.cleaner"
    },
    {
      "mesh": 0,
      "name": "Object_2"
    },
    {
      "mesh": 1,
      "name": "Object_3"
    },
    {
      "mesh": 2,
      "name": "Object_4"
    },
    {
      "mesh": 3,
      "name": "Object_5"
    },
    {
      "mesh": 4,
      "name": "Object_6"
    },
    {
      "mesh": 5,
      "name": "Object_7"
    },
    {
      "mesh": 6,
      "name": "Object_8"
    },
    {
      "mesh": 7,
      "name": "Object_9"
    },
    {
      "mesh": 8,
      "name": "Object_10"
    },
    {
      "mesh": 9,
      "name": "Object_11"
    }
  ],
  "samplers": [
    {
      "magFilter": 9729,
      "minFilter": 9987,
      "wrapS": 10497,
      "wrapT": 10497
    }
  ],
  "scene": 0,
  "scenes": [
    {
      "name": "Sketchfab_Scene",
      "nodes": [
        0
      ]
    }
  ],
  "textures": [
    {
      "sampler": 0,
      "source": 0
    },
    {
      "sampler": 0,
      "source": 1
    }
  ]
}
