{
  "accessors": [
    {
      "bufferView": 2,
      "componentType": 5126,
      "count": 138,
      "max": [
        0.9424600601196289,
        0.11168233305215836,
        0.6500598192214966
      ],
      "min": [
        -0.9424600601196289,
        -0.06487318873405457,
        -0.6501644849777222
      ],
      "type": "VEC3"
    },
    {
      "bufferView": 2,
      "byteOffset": 1656,
      "componentType": 5126,
      "count": 138,
      "max": [
        0.9951848387718201,
        0.9994247555732727,
        1.0
      ],
      "min": [
        -0.9951847791671753,
        -1.0,
        -1.0
      ],
      "type": "VEC3"
    },
    {
      "bufferView": 1,
      "componentType": 5126,
      "count": 138,
      "max": [
        0.9913953542709351,
        0.9886751770973206
      ],
      "min": [
        0.2648633122444153,
        0.011523422785103321
      ],
      "type": "VEC2"
    },
    {
      "bufferView": 0,
      "componentType": 5125,
      "count": 504,
      "type": "SCALAR"
    },
    {
      "bufferView": 2,
      "byteOffset": 3312,
      "componentType": 5126,
      "count": 400,
      "max": [
        0.27695563435554504,
        0.34016096591949463,
        0.8364781141281128
      ],
      "min": [
        -0.27695563435554504,
        -0.25486308336257935,
        -0.0018446333706378937
      ],
      "type": "VEC3"
    },
    {
      "bufferView": 2,
      "byteOffset": 8112,
      "componentType": 5126,
      "count": 400,
      "max": [
        1.0,
        0.9999907612800598,
        0.9999999403953552
      ],
      "min": [
        -1.0,
        -1.0,
        -0.9999999403953552
      ],
      "type": "VEC3"
    },
    {
      "bufferView": 1,
      "byteOffset": 1104,
      "componentType": 5126,
      "count": 400,
      "max": [
        0.9094699025154114,
        0.9514351487159729
      ],
      "min": [
        0.13426581025123596,
        0.03781178593635559
      ],
      "type": "VEC2"
    },
    {
      "bufferView": 0,
      "byteOffset": 2016,
      "componentType": 5125,
      "count": 1260,
      "type": "SCALAR"
    },
    {
      "bufferView": 2,
      "byteOffset": 12912,
      "componentType": 5126,
      "count": 417,
      "max": [
        0.4523542523384094,
        0.23557642102241516,
        0.01540212333202362
      ],
      "min": [
        -0.4523542523384094,
        -0.1713670790195465,
        -0.02071901597082615
      ],
      "type": "VEC3"
    },
    {
      "bufferView": 2,
      "byteOffset": 17916,
      "componentType": 5126,
      "count": 417,
      "max": [
        1.0,
        0.9982186555862427,
        0.9999499917030334
      ],
      "min": [
        -1.0,
        -1.0,
        -1.0
      ],
      "type": "VEC3"
    },
    {
      "bufferView": 3,
      "componentType": 5126,
      "count": 417,
      "max": [
        1.0,
        1.0,
        0.6532451510429382,
        1.0
      ],
      "min": [
        -1.0,
        -1.0,
        -0.03411085903644562,
        1.0
      ],
      "type": "VEC4"
    },
    {
      "bufferView": 1,
      "byteOffset": 4304,
      "componentType": 5126,
      "count": 417,
      "max": [
        0.9788492918014526,
        0.9802786707878113
      ],
      "min": [
        0.027651533484458923,
        0.020899474620819092
      ],
      "type": "VEC2"
    },
    {
      "bufferView": 0,
      "byteOffset": 7056,
      "componentType": 5125,
      "count": 1944,
      "type": "SCALAR"
    },
    {
      "bufferView": 2,
      "byteOffset": 22920,
      "componentType": 5126,
      "count": 466,
      "max": [
        0.04535467550158501,
        0.09221401810646057,
        0.014492446556687355
      ],
      "min": [
        -0.04535472020506859,
        -0.09224250912666321,
        -0.013673185370862484
      ],
      "type": "VEC3"
    },
    {
      "bufferView": 2,
      "byteOffset": 28512,
      "componentType": 5126,
      "count": 466,
      "max": [
        1.0,
        0.9907984137535095,
        0.9999954104423523
      ],
      "min": [
        -1.0,
        -0.9907984733581543,
        -1.0
      ],
      "type": "VEC3"
    },
    {
      "bufferView": 1,
      "byteOffset": 7640,
      "componentType": 5126,
      "count": 466,
      "max": [
        0.975112795829773,
        0.9725065231323242
      ],
      "min": [
        0.008556336164474487,
        0.011444488540291786
      ],
      "type": "VEC2"
    },
    {
      "bufferView": 0,
      "byteOffset": 14832,
      "componentType": 5125,
      "count": 1692,
      "type": "SCALAR"
    }
  ],
  "asset": {
    "extras": {
      "author": "Agustín Hönnun (https://sketchfab.com/Agustin_Honnun)",
      "license": "SKETCHFAB Standard (https://sketchfab.com/licenses)",
      "source": "https://sketchfab.com/3d-models/imac-computer-e632ef53df614e30b9983089ff984fa4",
      "title": "iMac Computer"
    },
    "generator": "Sketchfab-16.33.0",
    "version": "2.0"
  },
  "bufferViews": [
    {
      "buffer": 0,
      "byteLength": 21600,
      "name": "floatBufferViews",
      "target": 34963
    },
    {
      "buffer": 0,
      "byteLength": 11368,
      "byteOffset": 21600,
      "byteStride": 8,
      "name": "floatBufferViews",
      "target": 34962
    },
    {
      "buffer": 0,
      "byteLength": 34104,
      "byteOffset": 32968,
      "byteStride": 12,
      "name": "floatBufferViews",
      "target": 34962
    },
    {
      "buffer": 0,
      "byteLength": 6672,
      "byteOffset": 67072,
      "byteStride": 16,
      "name": "floatBufferViews",
      "target": 34962
    }
  ],
  "buffers": [
    {
      "byteLength": 73744,
      "uri": "scene.bin"
    }
  ],
  "extensionsUsed": [
    "KHR_materials_specular"
  ],
  "images": [
    {
      "uri": "textures/iMac_baseColor.png"
    },
    {
      "uri": "textures/iMac_metallicRoughness.png"
    },
    {
      "uri": "textures/Base_baseColor.jpeg"
    },
    {
      "uri": "textures/Keyboard_baseColor.jpeg"
    },
    {
      "uri": "textures/Keyboard_metallicRoughness.png"
    },
    {
      "uri": "textures/Keyboard_normal.png"
    },
    {
      "uri": "textures/Mouse_baseColor.jpeg"
    }
  ],
  "materials": [
    {
      "doubleSided": true,
      "name": "iMac",
      "pbrMetallicRoughness": {
        "baseColorTexture": {
          "index": 0
        },
        "metallicRoughnessTexture": {
          "index": 1
        },
        "roughnessFactor": 0.536765287075376
      }
    },
    {
      "doubleSided": true,
      "extensions": {
        "KHR_materials_specular": {
          "specularColorFactor": [
            1.0,
            1.0,
            1.0
          ],
          "specularFactor": 1.0
        }
      },
      "name": "Base",
      "pbrMetallicRoughness": {
        "baseColorTexture": {
          "index": 2
        },
        "metallicFactor": 0.0,
        "roughnessFactor": 0.11723333880548918
      }
    },
    {
      "doubleSided": true,
      "name": "Keyboard",
      "normalTexture": {
        "index": 5,
        "scale": 0.6766092698320049
      },
      "pbrMetallicRoughness": {
        "baseColorTexture": {
          "index": 3
        },
        "metallicFactor": 0.23275662890879134,
        "metallicRoughnessTexture": {
          "index": 4
        },
        "roughnessFactor": 0.8164532525886338
      }
    },
    {
      "doubleSided": true,
      "name": "Mouse",
      "pbrMetallicRoughness": {
        "baseColorTexture": {
          "index": 6
        },
        "metallicFactor": 0.0,
        "roughnessFactor": 0.1841152436021378
      }
    }
  ],
  "meshes": [
    {
      "name": "Display_iMac_0",
      "primitives": [
        {
          "attributes": {
            "NORMAL": 1,
            "POSITION": 0,
            "TEXCOORD_0": 2
          },
          "indices": 3,
          "material": 0,
          "mode": 4
        }
      ]
    },
    {
      "name": "Base_Base_0",
      "primitives": [
        {
          "attributes": {
            "NORMAL": 5,
            "POSITION": 4,
            "TEXCOORD_0": 6
          },
          "indices": 7,
          "material": 1,
          "mode": 4
        }
      ]
    },
    {
      "name": "Keyboard_Keyboard_0",
      "primitives": [
        {
          "attributes": {
            "NORMAL": 9,
            "POSITION": 8,
            "TANGENT": 10,
            "TEXCOORD_0": 11
          },
          "indices": 12,
          "material": 2,
          "mode": 4
        }
      ]
    },
    {
      "name": "Mouse.001_Mouse_0",
      "primitives": [
        {
          "attributes": {
            "NORMAL": 14,
            "POSITION": 13,
            "TEXCOORD_0": 15
          },
          "indices": 16,
          "material": 3,
          "mode": 4
        }
      ]
    }
  ],
  "nodes": [
    {
      "children": [
        1
      ],
      "matrix": [
        0.005049819592386484,
        0.0,
        0.0,
        0.0,
        0.0,
        1.1212851963341395e-18,
        -0.005049819592386484,
        0.0,
        0.0,
        0.005049819592386484,
        1.1212851963341395e-18,
        0.0,
        0.0,
        0.0,
        0.0,
        1.0
      ],
      "name": "Sketchfab_model"
    },
    {
      "children": [
        2
      ],
      "matrix": [
        1.0,
        0.0,
        0.0,
        0.0,
        0.0,
        0.0,
        1.0,
        0.0,
        0.0,
        -1.0,
        0.0,
        0.0,
        0.0,
        0.0,
        0.0,
        1.0
      ],
      "name": "2da2326d0b3e4a7d9b49861455ee94a0.fbx"
    },
    {
      "children": [
        3,
        5,
        7,
        9
      ],
      "name": "RootNode"
    },
    {
      "children": [
        4
      ],
      "matrix": [
        -99.99999999999847,
        8.74227798045639e-06,
        1.5099578831723132e-05,
        0.0,
        1.4280180168438622e-05,
        -8.715567517972394,
        99.61946274177858,
        0.0,
        1.0025024343531763e-05,
        99.61946274177923,
        8.71556751797103,
        0.0,
        2.684337854385376,
        83.15935516357422,
        64.77539825439453,
        1.0
      ],
      "name": "Display"
    },
    {
      "mesh": 0,
      "name": "Display_iMac_0"
    },
    {
      "children": [
        6
      ],
      "matrix": [
        -99.99999999999885,
        1.2246469849340659e-14,
        1.5099579909783702e-05,
        0.0,
        1.5099579909783661e-05,
        7.549789993177569e-06,
        99.99999999999856,
        0.0,
        -1.127740100078761e-12,
        99.9999999999997,
        -7.549789970973109e-06,
        0.0,
        2.684337615966797,
        -0.12458115816116333,
        67.8893814086914,
        1.0
      ],
      "name": "Base"
    },
    {
      "mesh": 1,
      "name": "Base_Base_0"
    },
    {
      "children": [
        8
      ],
      "matrix": [
        -99.9996249375945,
        -0.051162355813533164,
        -0.2718834911080739,
        0.0,
        -0.27235151602973445,
        0.9381865700961277,
        99.99522040944036,
        0.0,
        -0.048609132353937726,
        99.99557821471402,
        -0.9383223211743854,
        0.0,
        22.16293716430664,
        1.5659465789794922,
        -0.4766106605529785,
        1.0
      ],
      "name": "Keyboard"
    },
    {
      "mesh": 2,
      "name": "Keyboard_Keyboard_0"
    },
    {
      "children": [
        10
      ],
      "matrix": [
        99.97295455453954,
        -1.734723475976807e-16,
        -2.325587589400293,
        0.0,
        -2.3255875894002624,
        -1.6292067983592062e-05,
        -99.97295455453822,
        0.0,
        -3.788863106937712e-07,
        99.99999999999868,
        -1.628766170824747e-05,
        0.0,
        -49.72929000854492,
        1.0549920797348022,
        2.455425262451172,
        1.0
      ],
      "name": "Mouse.001"
    },
    {
      "mesh": 3,
      "name": "Mouse.001_Mouse_0"
    }
  ],
  "samplers": [
    {
      "magFilter": 9729,
      "minFilter": 9987,
      "wrapS": 10497,
      "wrapT": 10497
    }
  ],
  "scene": 0,
  "scenes": [
    {
      "name": "Sketchfab_Scene",
      "nodes": [
        0
      ]
    }
  ],
  "textures": [
    {
      "sampler": 0,
      "source": 0
    },
    {
      "sampler": 0,
      "source": 1
    },
    {
      "sampler": 0,
      "source": 2
    },
    {
      "sampler": 0,
      "source": 3
    },
    {
      "sampler": 0,
      "source": 4
    },
    {
      "sampler": 0,
      "source": 5
    },
    {
      "sampler": 0,
      "source": 6
    }
  ]
}
